<svg width="216" height="136" viewBox="0 0 216 136" fill="none" xmlns="http://www.w3.org/2000/svg">
<path d="M208 48.8511C208 26.2896 190.091 8 168 8C168 8 148 8 128 28.4255C117.744 38.8999 113.01 44.003 108 49.2436C112.557 54.0104 117.343 58.891 126.721 68.0312C127.138 67.6047 127.564 67.1689 128 66.7234C148 46.2979 168 46.2979 168 46.2979C183.316 46.2979 196.621 55.089 203.342 68C206.315 62.2885 208 55.7707 208 48.8511Z" fill="#F20F99"/>
<path d="M48 8C25.9086 8 8 26.2896 8 48.8511C8 55.7707 9.68458 62.2885 12.6578 68C19.3786 80.911 32.6841 89.7021 48 89.7021C48 89.7021 67.5183 89.198 88 69.2766C88.4357 68.8528 88.862 68.4378 89.2792 68.0312C98.6572 58.891 103.443 54.0104 108 49.2436C102.99 44.003 98.2562 38.8999 88 28.4255C68 8 48 8 48 8Z" fill="#F20F99"/>
<path d="M108 49.2436C113.01 44.003 117.744 38.8999 128 28.4255C148 8 168 8 168 8C190.091 8 208 26.2896 208 48.8511C208 55.7707 206.315 62.2885 203.342 68M108 49.2436C102.99 44.003 98.2562 38.8999 88 28.4255C68 8 48 8 48 8C25.9086 8 8 26.2896 8 48.8511C8 55.7707 9.68458 62.2885 12.6578 68M108 49.2436C103.443 54.0104 98.6572 58.891 89.2792 68.0312M108 49.2436C112.557 54.0104 117.343 58.891 126.721 68.0312M128 69.2766C127.564 68.8528 127.138 68.4378 126.721 68.0312M108 87.5415C103.24 92.5203 98.231 97.6233 88 107.574C67.5183 127.496 48 128 48 128C25.9086 128 8 109.71 8 87.1489C8 80.2293 9.68458 73.7115 12.6578 68M108 87.5415C112.76 92.5203 117.769 97.6233 128 107.574C148.482 127.496 168 128 168 128C190.091 128 208 109.71 208 87.1489C208 80.2293 206.315 73.7115 203.342 68M108 87.5415C103.203 82.5238 98.6594 77.6322 89.2792 68.0312M108 87.5415C112.797 82.5238 117.341 77.6322 126.721 68.0312M88 66.7234C88.4362 67.1689 88.8625 67.6047 89.2792 68.0312M12.6578 68C19.3786 80.911 32.6841 89.7021 48 89.7021C48 89.7021 67.5183 89.198 88 69.2766C88.4357 68.8528 88.862 68.4378 89.2792 68.0312M203.342 68C196.621 55.089 183.316 46.2979 168 46.2979C168 46.2979 148 46.2979 128 66.7234C127.564 67.1689 127.138 67.6047 126.721 68.0312" stroke="white" stroke-width="15"/>
</svg>
